<?xml version="1.0" encoding="utf-8"?>
<!-- Generator: Adobe Illustrator 27.7.0, SVG Export Plug-In . SVG Version: 6.00 Build 0)  -->
<svg version="1.1" xmlns="http://www.w3.org/2000/svg" xmlns:xlink="http://www.w3.org/1999/xlink" x="0px" y="0px"
	 viewBox="0 0 193.4 65.09" style="enable-background:new 0 0 193.4 65.09;" xml:space="preserve">
<style type="text/css">
	.st0{fill:#FFFFFF;}
	.st1{fill:none;stroke:#A90021;stroke-width:3;}
	.st2{fill:#A90021;}
	.st3{fill:#A90021;stroke:#A90021;stroke-width:0.8;}
</style>
<g>
	<path class="st0" d="M185.47,49.72c0,6.24-5.1,11.34-11.34,11.34H20.31c-6.24,0-11.34-5.1-11.34-11.34V16.58
		c0-6.24,5.1-11.34,11.34-11.34h153.82c6.24,0,11.34,5.1,11.34,11.34V49.72z"/>
	<path class="st1" d="M185.47,49.72c0,6.24-5.1,11.34-11.34,11.34H20.31c-6.24,0-11.34-5.1-11.34-11.34V16.58
		c0-6.24,5.1-11.34,11.34-11.34h153.82c6.24,0,11.34,5.1,11.34,11.34V49.72z"/>
</g>
<path class="st2" d="M40.56,56.09c44.46-29.19,19.9-60.62,0-38.11h-0.17c-19.9-22.51-44.46,8.92,0,38.11H40.56z"/>
<g>
	<path class="st3" d="M69.68,17.91c0-0.44,0.16-0.66,0.48-0.66c0.32,0,0.48,0.22,0.48,0.66v4.68h6.54v-4.68
		c0-0.44,0.16-0.66,0.48-0.66c0.32,0,0.48,0.22,0.48,0.66v10.98c0,0.44-0.16,0.66-0.48,0.66c-0.32,0-0.48-0.22-0.48-0.66v-5.34
		h-6.54v5.34c0,0.44-0.16,0.66-0.48,0.66c-0.32,0-0.48-0.22-0.48-0.66V17.91z"/>
	<path class="st3" d="M81.24,18.33c0.12,0.16,0.18,0.36,0.18,0.6c0,0.24-0.06,0.44-0.18,0.6c-0.16,0.16-0.32,0.24-0.48,0.24
		c-0.2,0-0.36-0.08-0.48-0.24c-0.16-0.16-0.24-0.36-0.24-0.6c0-0.24,0.08-0.44,0.24-0.6c0.12-0.16,0.28-0.24,0.48-0.24
		C80.92,18.09,81.08,18.17,81.24,18.33z M80.28,21.75c0-0.4,0.16-0.6,0.48-0.6c0.28,0,0.42,0.2,0.42,0.6v7.2
		c0,0.4-0.14,0.6-0.42,0.6c-0.32,0-0.48-0.2-0.48-0.6V21.75z"/>
	<path class="st3" d="M84.26,21.15v-1.68c0-0.4,0.14-0.6,0.42-0.6c0.28,0,0.42,0.2,0.42,0.6v1.68h1.62c0.28,0,0.42,0.14,0.42,0.42
		c0,0.28-0.14,0.42-0.42,0.42H85.1v5.58c0,0.4,0.08,0.68,0.24,0.84c0.16,0.16,0.42,0.24,0.78,0.24c0.2,0,0.4-0.06,0.6-0.18
		c0.24-0.08,0.4,0,0.48,0.24c0.08,0.28-0.02,0.5-0.3,0.66c-0.24,0.12-0.56,0.18-0.96,0.18c-0.56,0-0.98-0.14-1.26-0.42
		c-0.28-0.32-0.42-0.8-0.42-1.44v-5.7h-1.2c-0.24,0-0.36-0.14-0.36-0.42c0-0.28,0.12-0.42,0.36-0.42H84.26z"/>
	<path class="st3" d="M93.81,22.05c0.36,0.44,0.54,1.04,0.54,1.8v4.02c0,0.56,0.2,0.84,0.6,0.84c0.32,0,0.48,0.12,0.48,0.36
		c0,0.32-0.16,0.48-0.48,0.48c-0.52,0-0.84-0.08-0.96-0.24c-0.28-0.24-0.44-0.64-0.48-1.2c-0.68,0.96-1.58,1.44-2.7,1.44
		c-0.92,0-1.58-0.24-1.98-0.72c-0.4-0.48-0.6-0.98-0.6-1.5c0-0.6,0.16-1.1,0.48-1.5c0.52-0.64,1.4-1,2.64-1.08
		c0.32,0,0.76-0.06,1.32-0.18c0.2-0.04,0.4-0.16,0.6-0.36c0.16-0.2,0.24-0.48,0.24-0.84c0-0.24-0.1-0.48-0.3-0.72
		c-0.36-0.44-0.96-0.66-1.8-0.66c-1.12,0-1.8,0.5-2.04,1.5c-0.12,0.36-0.3,0.5-0.54,0.42c-0.24-0.12-0.32-0.34-0.24-0.66
		c0.08-0.44,0.24-0.8,0.48-1.08c0.56-0.68,1.36-1.02,2.4-1.02C92.55,21.15,93.33,21.45,93.81,22.05z M93.51,24.99
		c-0.24,0.2-0.84,0.36-1.8,0.48c-1.68,0.2-2.52,0.78-2.52,1.74c0,1,0.54,1.5,1.62,1.5c1.16,0,2.06-0.54,2.7-1.62V24.99z"/>
	<path class="st3" d="M102.51,22.36c0.24,0.32,0.42,0.64,0.54,0.96c0.12,0.36,0.06,0.64-0.18,0.84c-0.28,0.12-0.48,0.02-0.6-0.3
		c-0.48-1.24-1.2-1.86-2.16-1.86c-0.72,0-1.32,0.3-1.8,0.9c-0.52,0.64-0.78,1.46-0.78,2.46c0,1.04,0.24,1.86,0.72,2.46
		c0.48,0.6,1.1,0.9,1.86,0.9c0.68,0,1.22-0.24,1.62-0.72c0.24-0.32,0.44-0.72,0.6-1.2c0.08-0.36,0.24-0.5,0.48-0.42
		c0.28,0.04,0.4,0.24,0.36,0.6c-0.12,0.56-0.38,1.08-0.78,1.56c-0.52,0.68-1.3,1.02-2.34,1.02c-1.04,0-1.88-0.4-2.52-1.2
		c-0.64-0.8-0.96-1.8-0.96-3c0-1.16,0.34-2.16,1.02-3c0.64-0.8,1.46-1.2,2.46-1.2C101.09,21.15,101.91,21.55,102.51,22.36z"/>
	<path class="st3" d="M104.8,17.85c0-0.4,0.16-0.6,0.48-0.6c0.28,0,0.42,0.2,0.42,0.6v5.4c0.76-1.4,1.78-2.1,3.06-2.1
		c0.92,0,1.62,0.3,2.1,0.9c0.52,0.64,0.78,1.5,0.78,2.58v4.32c0,0.4-0.14,0.6-0.42,0.6c-0.28,0-0.42-0.2-0.42-0.6v-4.14
		c0-0.92-0.2-1.62-0.6-2.1c-0.4-0.48-0.92-0.72-1.56-0.72c-0.96,0-1.72,0.4-2.28,1.2c-0.36,0.48-0.58,0.92-0.66,1.32v4.44
		c0,0.4-0.14,0.6-0.42,0.6c-0.32,0-0.48-0.2-0.48-0.6V17.85z"/>
	<path class="st3" d="M114.73,18.33c0.12,0.16,0.18,0.36,0.18,0.6c0,0.24-0.06,0.44-0.18,0.6c-0.16,0.16-0.32,0.24-0.48,0.24
		c-0.2,0-0.36-0.08-0.48-0.24c-0.16-0.16-0.24-0.36-0.24-0.6c0-0.24,0.08-0.44,0.24-0.6c0.12-0.16,0.28-0.24,0.48-0.24
		C114.41,18.09,114.57,18.17,114.73,18.33z M113.77,21.75c0-0.4,0.16-0.6,0.48-0.6c0.28,0,0.42,0.2,0.42,0.6v7.2
		c0,0.4-0.14,0.6-0.42,0.6c-0.32,0-0.48-0.2-0.48-0.6V21.75z"/>
	<path class="st3" d="M122.34,17.91c0-0.44,0.16-0.66,0.48-0.66c0.32,0,0.48,0.22,0.48,0.66v10.98c0,0.44-0.16,0.66-0.48,0.66
		c-0.32,0-0.48-0.22-0.48-0.66V17.91z"/>
	<path class="st3" d="M125.45,21.75c0-0.4,0.16-0.6,0.48-0.6c0.28,0,0.42,0.2,0.42,0.6v1.5c0.24-0.44,0.48-0.78,0.72-1.02
		c0.68-0.72,1.44-1.08,2.28-1.08c0.96,0,1.72,0.34,2.28,1.02c0.44,0.56,0.66,1.36,0.66,2.4v4.38c0,0.4-0.14,0.6-0.42,0.6
		c-0.28,0-0.42-0.2-0.42-0.6v-4.2c0-0.88-0.18-1.54-0.54-1.98c-0.44-0.52-0.98-0.78-1.62-0.78c-0.96,0-1.72,0.4-2.28,1.2
		c-0.36,0.48-0.58,0.92-0.66,1.32v4.44c0,0.4-0.14,0.6-0.42,0.6c-0.32,0-0.48-0.2-0.48-0.6V21.75z"/>
	<path class="st3" d="M139.88,22.36c0.24,0.32,0.42,0.64,0.54,0.96c0.12,0.36,0.06,0.64-0.18,0.84c-0.28,0.12-0.48,0.02-0.6-0.3
		c-0.48-1.24-1.2-1.86-2.16-1.86c-0.72,0-1.32,0.3-1.8,0.9c-0.52,0.64-0.78,1.46-0.78,2.46c0,1.04,0.24,1.86,0.72,2.46
		c0.48,0.6,1.1,0.9,1.86,0.9c0.68,0,1.22-0.24,1.62-0.72c0.24-0.32,0.44-0.72,0.6-1.2c0.08-0.36,0.24-0.5,0.48-0.42
		c0.28,0.04,0.4,0.24,0.36,0.6c-0.12,0.56-0.38,1.08-0.78,1.56c-0.52,0.68-1.3,1.02-2.34,1.02c-1.04,0-1.88-0.4-2.52-1.2
		c-0.64-0.8-0.96-1.8-0.96-3c0-1.16,0.34-2.16,1.02-3c0.64-0.8,1.46-1.2,2.46-1.2C138.46,21.15,139.28,21.55,139.88,22.36z"/>
	<path class="st3" d="M143.14,18.33c0.12,0.16,0.18,0.36,0.18,0.6c0,0.24-0.06,0.44-0.18,0.6c-0.16,0.16-0.32,0.24-0.48,0.24
		c-0.2,0-0.36-0.08-0.48-0.24c-0.16-0.16-0.24-0.36-0.24-0.6c0-0.24,0.08-0.44,0.24-0.6c0.12-0.16,0.28-0.24,0.48-0.24
		C142.82,18.09,142.98,18.17,143.14,18.33z M142.18,21.75c0-0.4,0.16-0.6,0.48-0.6c0.28,0,0.42,0.2,0.42,0.6v7.2
		c0,0.4-0.14,0.6-0.42,0.6c-0.32,0-0.48-0.2-0.48-0.6V21.75z"/>
	<path class="st3" d="M150.95,17.85c0-0.4,0.16-0.6,0.48-0.6c0.28,0,0.42,0.2,0.42,0.6v11.1c0,0.4-0.14,0.6-0.42,0.6
		c-0.32,0-0.48-0.2-0.48-0.6v-1.14c-0.72,1.16-1.62,1.74-2.7,1.74c-1.04,0-1.86-0.38-2.46-1.14c-0.72-0.88-1.08-1.9-1.08-3.06
		c0-1.12,0.32-2.08,0.96-2.88c0.72-0.88,1.58-1.32,2.58-1.32c1.04,0,1.94,0.58,2.7,1.74V17.85z M146.45,22.95
		c-0.52,0.64-0.78,1.44-0.78,2.4c0,0.96,0.26,1.76,0.78,2.4c0.52,0.64,1.14,0.96,1.86,0.96c0.88,0,1.56-0.34,2.04-1.02
		c0.32-0.44,0.52-0.84,0.6-1.2v-2.28c-0.08-0.36-0.24-0.7-0.48-1.02c-0.64-0.8-1.36-1.2-2.16-1.2
		C147.59,21.99,146.97,22.31,146.45,22.95z"/>
	<path class="st3" d="M159.25,22.29c0.56,0.68,0.84,1.48,0.84,2.4c0,0.52-0.2,0.78-0.6,0.78h-5.04c0,0.96,0.24,1.72,0.72,2.28
		c0.48,0.64,1.06,0.96,1.74,0.96c0.76,0,1.36-0.3,1.8-0.9c0.2-0.32,0.36-0.68,0.48-1.08c0.12-0.28,0.3-0.36,0.54-0.24
		c0.16,0.12,0.22,0.34,0.18,0.66c-0.12,0.4-0.34,0.84-0.66,1.32c-0.48,0.72-1.24,1.08-2.28,1.08c-1.04,0-1.88-0.4-2.52-1.2
		c-0.64-0.8-0.96-1.86-0.96-3.18c0-1.08,0.32-2.02,0.96-2.82c0.64-0.8,1.46-1.2,2.46-1.2C157.87,21.15,158.64,21.54,159.25,22.29z
		 M154.45,24.63h4.44c0.16,0,0.24-0.1,0.24-0.3c0-0.52-0.2-1.02-0.6-1.5c-0.44-0.56-1-0.84-1.68-0.84c-0.64,0-1.2,0.32-1.68,0.96
		C154.81,23.39,154.57,23.95,154.45,24.63z"/>
	<path class="st3" d="M161.72,21.75c0-0.4,0.16-0.6,0.48-0.6c0.28,0,0.42,0.2,0.42,0.6v1.5c0.24-0.44,0.48-0.78,0.72-1.02
		c0.68-0.72,1.44-1.08,2.28-1.08c0.96,0,1.72,0.34,2.28,1.02c0.44,0.56,0.66,1.36,0.66,2.4v4.38c0,0.4-0.14,0.6-0.42,0.6
		c-0.28,0-0.42-0.2-0.42-0.6v-4.2c0-0.88-0.18-1.54-0.54-1.98c-0.44-0.52-0.98-0.78-1.62-0.78c-0.96,0-1.72,0.4-2.28,1.2
		c-0.36,0.48-0.58,0.92-0.66,1.32v4.44c0,0.4-0.14,0.6-0.42,0.6c-0.32,0-0.48-0.2-0.48-0.6V21.75z"/>
	<path class="st3" d="M171.65,21.15v-1.68c0-0.4,0.14-0.6,0.42-0.6c0.28,0,0.42,0.2,0.42,0.6v1.68h1.62c0.28,0,0.42,0.14,0.42,0.42
		c0,0.28-0.14,0.42-0.42,0.42h-1.62v5.58c0,0.4,0.08,0.68,0.24,0.84c0.16,0.16,0.42,0.24,0.78,0.24c0.2,0,0.4-0.06,0.6-0.18
		c0.24-0.08,0.4,0,0.48,0.24c0.08,0.28-0.02,0.5-0.3,0.66c-0.24,0.12-0.56,0.18-0.96,0.18c-0.56,0-0.98-0.14-1.26-0.42
		c-0.28-0.32-0.42-0.8-0.42-1.44v-5.7h-1.2c-0.24,0-0.36-0.14-0.36-0.42c0-0.28,0.12-0.42,0.36-0.42H171.65z"/>
	<path class="st3" d="M74.36,35.16c1.2,0,2.1,0.38,2.7,1.14c0.4,0.52,0.6,1.18,0.6,1.98s-0.18,1.42-0.54,1.86
		c-0.36,0.48-0.92,0.8-1.68,0.96c0.48,0.16,0.88,0.44,1.2,0.84c0.36,0.44,0.58,1.12,0.66,2.04c0.04,0.56,0.06,1.08,0.06,1.56
		c0.04,0.4,0.12,0.74,0.24,1.02c0.16,0.4,0.08,0.7-0.24,0.9c-0.36,0.08-0.6-0.08-0.72-0.48c-0.04-0.32-0.1-0.72-0.18-1.2
		c-0.04-0.52-0.06-1.1-0.06-1.74c-0.12-0.76-0.3-1.3-0.54-1.62c-0.44-0.52-1.14-0.78-2.1-0.78h-3.12v5.16
		c0,0.44-0.16,0.66-0.48,0.66c-0.32,0-0.48-0.22-0.48-0.66V36.24c0-0.72,0.3-1.08,0.9-1.08H74.36z M70.88,36.12
		c-0.16,0-0.24,0.1-0.24,0.3v4.26h3.84c0.72,0,1.28-0.26,1.68-0.78c0.32-0.36,0.48-0.86,0.48-1.5c0-0.64-0.16-1.14-0.48-1.5
		c-0.4-0.52-0.94-0.78-1.62-0.78H70.88z"/>
	<path class="st3" d="M84.61,40.21c0.56,0.68,0.84,1.48,0.84,2.4c0,0.52-0.2,0.78-0.6,0.78h-5.04c0,0.96,0.24,1.72,0.72,2.28
		c0.48,0.64,1.06,0.96,1.74,0.96c0.76,0,1.36-0.3,1.8-0.9c0.2-0.32,0.36-0.68,0.48-1.08c0.12-0.28,0.3-0.36,0.54-0.24
		c0.16,0.12,0.22,0.34,0.18,0.66c-0.12,0.4-0.34,0.84-0.66,1.32c-0.48,0.72-1.24,1.08-2.28,1.08c-1.04,0-1.88-0.4-2.52-1.2
		c-0.64-0.8-0.96-1.86-0.96-3.18c0-1.08,0.32-2.02,0.96-2.82c0.64-0.8,1.46-1.2,2.46-1.2C83.23,39.07,84.01,39.45,84.61,40.21z
		 M79.81,42.55h4.44c0.16,0,0.24-0.1,0.24-0.3c0-0.52-0.2-1.02-0.6-1.5c-0.44-0.56-1-0.84-1.68-0.84c-0.64,0-1.2,0.32-1.68,0.96
		C80.17,41.31,79.93,41.87,79.81,42.55z"/>
	<path class="st3" d="M91.89,40.09c0.24,0.28,0.38,0.58,0.42,0.9c0.04,0.28-0.04,0.48-0.24,0.6c-0.28,0.08-0.46-0.02-0.54-0.3
		c-0.32-0.92-1-1.38-2.04-1.38c-0.8,0-1.36,0.2-1.68,0.6c-0.2,0.24-0.3,0.54-0.3,0.9c0,0.48,0.34,0.8,1.02,0.96
		c0.76,0.16,1.58,0.36,2.46,0.6c0.56,0.2,0.96,0.46,1.2,0.78c0.28,0.36,0.42,0.86,0.42,1.5c0,0.52-0.16,0.94-0.48,1.26
		c-0.64,0.64-1.44,0.96-2.4,0.96c-1.08,0-1.92-0.34-2.52-1.02c-0.24-0.28-0.42-0.6-0.54-0.96c-0.08-0.36-0.02-0.62,0.18-0.78
		c0.28-0.12,0.48-0.02,0.6,0.3c0.08,0.32,0.22,0.62,0.42,0.9c0.4,0.48,1.02,0.72,1.86,0.72c0.68,0,1.24-0.2,1.68-0.6
		c0.24-0.2,0.36-0.48,0.36-0.84c0-0.68-0.38-1.12-1.14-1.32l-2.1-0.48c-1.28-0.32-1.92-0.98-1.92-1.98c0-0.52,0.18-1,0.54-1.44
		c0.48-0.6,1.26-0.9,2.34-0.9C90.61,39.07,91.41,39.41,91.89,40.09z"/>
	<path class="st3" d="M94.27,39.67c0-0.4,0.16-0.6,0.48-0.6c0.28,0,0.42,0.2,0.42,0.6v1.14c0.76-1.16,1.66-1.74,2.7-1.74
		c1.04,0,1.9,0.42,2.58,1.26c0.64,0.8,0.96,1.78,0.96,2.94c0,1.2-0.32,2.2-0.96,3c-0.64,0.8-1.48,1.2-2.52,1.2
		c-1.16,0-2.08-0.56-2.76-1.68v2.52c0,0.4-0.14,0.6-0.42,0.6c-0.32,0-0.48-0.2-0.48-0.6V39.67z M95.17,42.13v2.28
		c0.6,1.48,1.5,2.22,2.7,2.22c0.72,0,1.34-0.32,1.86-0.96c0.48-0.6,0.72-1.4,0.72-2.4c0-0.96-0.26-1.76-0.78-2.4
		c-0.52-0.64-1.12-0.96-1.8-0.96C96.75,39.91,95.85,40.65,95.17,42.13z"/>
	<path class="st3" d="M108.99,40.39c0.6,0.76,0.9,1.7,0.9,2.82c0,1.28-0.28,2.28-0.84,3c-0.68,0.84-1.62,1.26-2.82,1.26
		c-1.16,0-2.08-0.42-2.76-1.26c-0.6-0.72-0.9-1.72-0.9-3c0-1.12,0.32-2.06,0.96-2.82c0.68-0.88,1.58-1.32,2.7-1.32
		S108.27,39.51,108.99,40.39z M104.25,40.93c-0.48,0.6-0.72,1.36-0.72,2.28c0,1.04,0.24,1.86,0.72,2.46
		c0.52,0.64,1.18,0.96,1.98,0.96s1.46-0.32,1.98-0.96c0.48-0.6,0.72-1.42,0.72-2.46c0-0.92-0.24-1.68-0.72-2.28
		c-0.56-0.68-1.22-1.02-1.98-1.02C105.47,39.91,104.81,40.25,104.25,40.93z"/>
	<path class="st3" d="M111.52,39.67c0-0.4,0.16-0.6,0.48-0.6c0.28,0,0.42,0.2,0.42,0.6v1.5c0.24-0.44,0.48-0.78,0.72-1.02
		c0.68-0.72,1.44-1.08,2.28-1.08c0.96,0,1.72,0.34,2.28,1.02c0.44,0.56,0.66,1.36,0.66,2.4v4.38c0,0.4-0.14,0.6-0.42,0.6
		c-0.28,0-0.42-0.2-0.42-0.6v-4.2c0-0.88-0.18-1.54-0.54-1.98c-0.44-0.52-0.98-0.78-1.62-0.78c-0.96,0-1.72,0.4-2.28,1.2
		c-0.36,0.48-0.58,0.92-0.66,1.32v4.44c0,0.4-0.14,0.6-0.42,0.6c-0.32,0-0.48-0.2-0.48-0.6V39.67z"/>
	<path class="st3" d="M125.29,40.09c0.24,0.28,0.38,0.58,0.42,0.9c0.04,0.28-0.04,0.48-0.24,0.6c-0.28,0.08-0.46-0.02-0.54-0.3
		c-0.32-0.92-1-1.38-2.04-1.38c-0.8,0-1.36,0.2-1.68,0.6c-0.2,0.24-0.3,0.54-0.3,0.9c0,0.48,0.34,0.8,1.02,0.96
		c0.76,0.16,1.58,0.36,2.46,0.6c0.56,0.2,0.96,0.46,1.2,0.78c0.28,0.36,0.42,0.86,0.42,1.5c0,0.52-0.16,0.94-0.48,1.26
		c-0.64,0.64-1.44,0.96-2.4,0.96c-1.08,0-1.92-0.34-2.52-1.02c-0.24-0.28-0.42-0.6-0.54-0.96c-0.08-0.36-0.02-0.62,0.18-0.78
		c0.28-0.12,0.48-0.02,0.6,0.3c0.08,0.32,0.22,0.62,0.42,0.9c0.4,0.48,1.02,0.72,1.86,0.72c0.68,0,1.24-0.2,1.68-0.6
		c0.24-0.2,0.36-0.48,0.36-0.84c0-0.68-0.38-1.12-1.14-1.32l-2.1-0.48c-1.28-0.32-1.92-0.98-1.92-1.98c0-0.52,0.18-1,0.54-1.44
		c0.48-0.6,1.26-0.9,2.34-0.9C124.02,39.07,124.82,39.41,125.29,40.09z"/>
	<path class="st3" d="M132.97,40.21c0.56,0.68,0.84,1.48,0.84,2.4c0,0.52-0.2,0.78-0.6,0.78h-5.04c0,0.96,0.24,1.72,0.72,2.28
		c0.48,0.64,1.06,0.96,1.74,0.96c0.76,0,1.36-0.3,1.8-0.9c0.2-0.32,0.36-0.68,0.48-1.08c0.12-0.28,0.3-0.36,0.54-0.24
		c0.16,0.12,0.22,0.34,0.18,0.66c-0.12,0.4-0.34,0.84-0.66,1.32c-0.48,0.72-1.24,1.08-2.28,1.08c-1.04,0-1.88-0.4-2.52-1.2
		c-0.64-0.8-0.96-1.86-0.96-3.18c0-1.08,0.32-2.02,0.96-2.82c0.64-0.8,1.46-1.2,2.46-1.2C131.59,39.07,132.36,39.45,132.97,40.21z
		 M128.16,42.55h4.44c0.16,0,0.24-0.1,0.24-0.3c0-0.52-0.2-1.02-0.6-1.5c-0.44-0.56-1-0.84-1.68-0.84c-0.64,0-1.2,0.32-1.68,0.96
		C128.52,41.31,128.29,41.87,128.16,42.55z"/>
	<path class="st3" d="M147.58,35.16c0.32,0,0.48,0.16,0.48,0.48c0,0.32-0.16,0.48-0.48,0.48h-3.24V46.8c0,0.44-0.16,0.66-0.48,0.66
		s-0.48-0.22-0.48-0.66V36.12h-3.24c-0.32,0-0.48-0.16-0.48-0.48c0-0.32,0.16-0.48,0.48-0.48H147.58z"/>
	<path class="st3" d="M154.96,40.21c0.56,0.68,0.84,1.48,0.84,2.4c0,0.52-0.2,0.78-0.6,0.78h-5.04c0,0.96,0.24,1.72,0.72,2.28
		c0.48,0.64,1.06,0.96,1.74,0.96c0.76,0,1.36-0.3,1.8-0.9c0.2-0.32,0.36-0.68,0.48-1.08c0.12-0.28,0.3-0.36,0.54-0.24
		c0.16,0.12,0.22,0.34,0.18,0.66c-0.12,0.4-0.34,0.84-0.66,1.32c-0.48,0.72-1.24,1.08-2.28,1.08c-1.04,0-1.88-0.4-2.52-1.2
		c-0.64-0.8-0.96-1.86-0.96-3.18c0-1.08,0.32-2.02,0.96-2.82c0.64-0.8,1.46-1.2,2.46-1.2C153.58,39.07,154.36,39.45,154.96,40.21z
		 M150.16,42.55h4.44c0.16,0,0.24-0.1,0.24-0.3c0-0.52-0.2-1.02-0.6-1.5c-0.44-0.56-1-0.84-1.68-0.84c-0.64,0-1.2,0.32-1.68,0.96
		C150.52,41.31,150.28,41.87,150.16,42.55z"/>
	<path class="st3" d="M162.54,39.97c0.36,0.44,0.54,1.04,0.54,1.8v4.02c0,0.56,0.2,0.84,0.6,0.84c0.32,0,0.48,0.12,0.48,0.36
		c0,0.32-0.16,0.48-0.48,0.48c-0.52,0-0.84-0.08-0.96-0.24c-0.28-0.24-0.44-0.64-0.48-1.2c-0.68,0.96-1.58,1.44-2.7,1.44
		c-0.92,0-1.58-0.24-1.98-0.72c-0.4-0.48-0.6-0.98-0.6-1.5c0-0.6,0.16-1.1,0.48-1.5c0.52-0.64,1.4-1,2.64-1.08
		c0.32,0,0.76-0.06,1.32-0.18c0.2-0.04,0.4-0.16,0.6-0.36c0.16-0.2,0.24-0.48,0.24-0.84c0-0.24-0.1-0.48-0.3-0.72
		c-0.36-0.44-0.96-0.66-1.8-0.66c-1.12,0-1.8,0.5-2.04,1.5c-0.12,0.36-0.3,0.5-0.54,0.42c-0.24-0.12-0.32-0.34-0.24-0.66
		c0.08-0.44,0.24-0.8,0.48-1.08c0.56-0.68,1.36-1.02,2.4-1.02C161.29,39.07,162.06,39.37,162.54,39.97z M162.24,42.91
		c-0.24,0.2-0.84,0.36-1.8,0.48c-1.68,0.2-2.52,0.78-2.52,1.74c0,1,0.54,1.5,1.62,1.5c1.16,0,2.06-0.54,2.7-1.62V42.91z"/>
	<path class="st3" d="M165.77,39.67c0-0.4,0.16-0.6,0.48-0.6c0.28,0,0.42,0.2,0.42,0.6v0.9c0.64-1,1.4-1.5,2.28-1.5
		c0.72,0,1.24,0.26,1.56,0.78c0.24,0.4,0.4,0.74,0.48,1.02c0.64-1.2,1.44-1.8,2.4-1.8c0.68,0,1.24,0.26,1.68,0.78
		c0.4,0.52,0.6,1.28,0.6,2.28v4.74c0,0.4-0.14,0.6-0.42,0.6c-0.28,0-0.42-0.2-0.42-0.6v-4.86c0-0.68-0.14-1.2-0.42-1.56
		c-0.32-0.36-0.7-0.54-1.14-0.54c-0.6,0-1.1,0.26-1.5,0.78c-0.32,0.36-0.52,0.8-0.6,1.32v4.86c0,0.4-0.14,0.6-0.42,0.6
		c-0.28,0-0.42-0.2-0.42-0.6v-4.86c0-0.68-0.16-1.2-0.48-1.56c-0.28-0.36-0.64-0.54-1.08-0.54c-0.6,0-1.12,0.26-1.56,0.78
		c-0.28,0.36-0.46,0.8-0.54,1.32v4.86c0,0.4-0.14,0.6-0.42,0.6c-0.32,0-0.48-0.2-0.48-0.6V39.67z"/>
</g>
<g>
	<path class="st0" d="M24.32,23.64h2.78v4.5h3.03v-4.5h2.81v12.87h-2.81V31.3H27.1v5.22h-2.78V23.64z"/>
	<path class="st0" d="M34.91,23.64h2.78v12.87h-2.78V23.64z"/>
	<path class="st0" d="M39.75,36.52V23.64h4.65c0.86,0,1.52,0.11,1.98,0.32c0.46,0.21,0.83,0.6,1.11,1.17
		c0.28,0.57,0.42,1.27,0.42,2.09c0,0.71-0.11,1.33-0.32,1.85c-0.22,0.52-0.51,0.94-0.89,1.26c-0.24,0.21-0.57,0.38-0.99,0.51
		c0.33,0.16,0.58,0.32,0.73,0.47c0.1,0.11,0.25,0.33,0.44,0.68c0.2,0.34,0.33,0.61,0.39,0.8l1.36,3.72h-3.15l-1.5-3.93
		c-0.19-0.51-0.36-0.84-0.5-0.99c-0.2-0.2-0.43-0.3-0.69-0.3h-0.25v5.22H39.75z M42.53,28.86h1.19c0.13,0,0.38-0.06,0.74-0.18
		c0.18-0.05,0.33-0.19,0.45-0.41c0.12-0.21,0.18-0.46,0.18-0.75c0-0.41-0.09-0.73-0.28-0.96c-0.19-0.22-0.54-0.34-1.05-0.34h-1.23
		V28.86z"/>
	<path class="st0" d="M48.75,23.64h8.47v3.19h-2.84v9.69h-2.78v-9.69h-2.84V23.64z"/>
</g>
</svg>
