<svg xmlns="http://www.w3.org/2000/svg" width="138.754" height="31.539" viewBox="0 0 138.754 31.539">
  <g id="logo" transform="translate(0 0)">
    <path id="パス_116" data-name="パス 116" d="M94.553.244,94.14.171C87.03-1.115,82.2,4.005,86.3,8.4c2.864,3.058,4.32,6.7,3.762,10.363h0q-.049.291-.073.607c-1.116,12.28,25.846,15.726,27.667,3.543q.073-.534.121-1.068C118.458,12.257,108.362,2.889,94.553.244Z" transform="translate(-64.209 0.03)" fill="#5aafe1"/>
    <path id="パス_117" data-name="パス 117" d="M20.118,44.246h0l.1-.413c1.6-8.64-17.668-13.178-19.925-4.708l-.049.146C-1.579,46.6,5.823,54.754,16.817,57.5h.146c4.83,1.189,8.179-2.087,5.509-5.266C20.385,49.779,19.438,46.939,20.118,44.246Z" transform="translate(0.033 -26.207)" fill="#5aafe1"/>
    <path id="パス_118" data-name="パス 118" d="M271.745,38.034h-6.48V34.005H271.6c1.772.024,3.034-.316,3.762-1.044a2.642,2.642,0,0,0,.777-2.306c0-2.111-.9-2.6-4.441-3.4-3.034-.68-7.6-1.675-7.6-7.3,0-2.039,1.553-7.353,8.688-7.353h4.635v4.029h-4.635c-2.039,0-3.422.582-4.15,1.723a3.69,3.69,0,0,0-.534,1.6c0,2.111.9,2.6,4.441,3.4,3.034.68,7.6,1.675,7.6,7.3a6.951,6.951,0,0,1-1.966,5.169A9.3,9.3,0,0,1,271.745,38.034Z" transform="translate(-199.998 -9.535)"/>
    <path id="パス_119" data-name="パス 119" d="M513.245,38.034h-6.48V34.005H513.1c1.771.024,3.034-.316,3.762-1.044a2.643,2.643,0,0,0,.777-2.306c0-2.111-.9-2.6-4.441-3.4-3.034-.68-7.6-1.675-7.6-7.3,0-2.039,1.553-7.353,8.688-7.353h4.635v4.029h-4.635c-2.039,0-3.422.582-4.15,1.723a3.69,3.69,0,0,0-.534,1.6c0,2.111.9,2.6,4.441,3.4,3.034.68,7.6,1.675,7.6,7.3a6.951,6.951,0,0,1-1.966,5.169A9.3,9.3,0,0,1,513.245,38.034Z" transform="translate(-382.888 -9.535)"/>
    <rect id="長方形_526" data-name="長方形 526" width="4.004" height="24.296" transform="translate(84.731 3.72)"/>
    <path id="パス_120" data-name="パス 120" d="M398.82,38.41A12.5,12.5,0,0,1,386.2,25.741,12.7,12.7,0,1,1,398.82,38.41Zm0-21.405a8.5,8.5,0,0,0-8.615,8.737,8.414,8.414,0,0,0,8.615,8.64,8.689,8.689,0,1,0,0-17.377Z" transform="translate(-292.465 -9.838)"/>
  </g>
</svg>