<?xml version="1.0" encoding="utf-8"?>
<!-- Generator: Adobe Illustrator 13.0.0, SVG Export Plug-In . SVG Version: 6.00 Build 14948)  -->
<!DOCTYPE svg PUBLIC "-//W3C//DTD SVG 1.1//EN" "http://www.w3.org/Graphics/SVG/1.1/DTD/svg11.dtd">
<svg version="1.1" id="レイヤー_1" xmlns="http://www.w3.org/2000/svg" xmlns:xlink="http://www.w3.org/1999/xlink" x="0px"
	 y="0px" width="466.858px" height="110.705px" viewBox="0 0 466.858 110.705" enable-background="new 0 0 466.858 110.705"
	 xml:space="preserve">
<g>
	<path fill="#0075BF" d="M0,54.64c0,30.136,23.817,54.649,53.086,54.649c29.285,0,53.109-24.514,53.109-54.649
		C106.195,24.513,82.371,0,53.086,0C23.817,0,0,24.513,0,54.64z M3.775,54.64c0-25.122,18.105-46.4,41.869-50.14
		c-13.359,5.696-23.035,26.197-23.035,50.135c0,23.953,9.676,44.452,23.035,50.151C21.88,101.05,3.775,79.774,3.775,54.64z
		 M26.386,54.635c0-26.399,11.983-47.89,26.7-47.89c6.551,0,12.826,4.331,17.732,12.162c-4.449,1.609-9.016,4.64-12.913,8.643
		c-1.592-0.293-3.1-0.453-4.563-0.453c-14.755,0-26.751,12.485-26.944,27.895C26.398,54.876,26.386,54.762,26.386,54.635z
		 M60.536,4.5c23.77,3.734,41.881,25.015,41.881,50.14c0,25.134-18.107,46.41-41.87,50.146
		c13.357-5.699,23.031-26.198,23.031-50.151c0-3.004-0.169-6.097-0.496-9.178c3.921-5.345,6.089-11.038,6.089-16.043
		c0-3.508-1.092-6.483-3.158-8.614c-2.045-2.107-4.927-3.225-8.328-3.225c-0.986,0-2.053,0.122-3.14,0.317
		C70.668,11.366,65.793,6.758,60.536,4.5z M58.113,27.565c-0.045-0.008-0.083-0.005-0.126-0.012
		C58.025,27.554,58.065,27.556,58.113,27.565z M26.425,56.037c0.353,15.27,12.258,27.594,26.917,27.594
		c12.616,0,23.157-9.158,26.097-21.435c-2.029,22.826-13.049,40.345-26.353,40.345C38.627,102.542,26.841,81.804,26.425,56.037z
		 M30.137,55.365c0-13.454,10.413-24.399,23.206-24.399c0,0,0.916,0.051,1.573,0.083c-4.452,5.704-6.838,11.836-6.838,17.016
		c0,3.417,1.023,6.421,3.124,8.584c2.049,2.116,4.925,3.233,8.333,3.233c5.271,0,11.357-2.669,16.813-7.261
		c0.064,0.862,0.205,2.744,0.205,2.744c0,13.452-10.414,24.394-23.209,24.394C40.549,79.758,30.137,68.817,30.137,55.365z
		 M53.886,53.922L53.886,53.922c-1.356-1.395-1.998-3.411-1.998-5.775c0-4.78,2.636-10.974,7.317-16.345
		c7.757,2.133,13.973,8.406,16.314,16.467c-5.14,4.843-11.098,7.736-15.984,7.736C57.155,56.005,55.208,55.288,53.886,53.922z
		 M72.751,22.329c3.179,6.214,5.4,13.793,6.41,21.969c-0.11,0.136-0.4,0.488-0.713,0.87c-2.85-7.665-8.839-13.733-16.216-16.449
		C65.534,25.729,69.229,23.477,72.751,22.329z M77.685,21.446c2.373,0,4.331,0.718,5.65,2.085c1.343,1.384,2.001,3.408,2.001,5.815
		c0,3.011-1.08,6.618-3.098,10.285c-1.187-6.651-3.114-12.737-5.748-18.103C76.99,21.493,77.685,21.446,77.685,21.446z"/>
	<g>
		<path d="M142.925,105.567c-0.525-0.047-1.048-0.125-1.567-0.125c-0.519,0-1.044,0.078-1.563,0.125V90.463
			c-1.479,0-2.8,0.18-3.879,0.35c0.04-0.343,0.1-0.689,0.1-1.058c0-0.343-0.06-0.688-0.1-1.028h10.743
			c-0.042,0.34-0.103,0.686-0.103,1.028c0,0.368,0.061,0.715,0.103,1.058c-1.231-0.17-2.464-0.35-3.733-0.35V105.567z"/>
		<path d="M151.124,95.356c0.731-0.96,1.961-1.912,3.087-1.912c0.963,0,1.751,0.337,2.44,1.126c0.774,0.884,0.875,1.912,0.875,3.113
			v7.884c-0.474-0.047-0.956-0.125-1.437-0.125c-0.479,0-0.961,0.078-1.439,0.125v-6.116c0-2.283-0.255-3.951-1.712-3.951
			c-1.918,0-1.814,2.85-1.814,4.421v5.646c-0.482-0.047-0.959-0.125-1.439-0.125s-0.961,0.078-1.441,0.125V88.662
			c0.479,0.049,0.961,0.128,1.441,0.128s0.957-0.079,1.439-0.128V95.356z"/>
		<path d="M302.011,95.356c0.734-0.96,1.965-1.912,3.092-1.912c0.959,0,1.749,0.337,2.438,1.126
			c0.771,0.884,0.881,1.912,0.881,3.113v7.884c-0.48-0.047-0.961-0.125-1.445-0.125c-0.471,0-0.957,0.078-1.437,0.125v-6.116
			c0-2.283-0.251-3.951-1.707-3.951c-1.919,0-1.821,2.85-1.821,4.421v5.646c-0.479-0.047-0.956-0.125-1.439-0.125
			c-0.479,0-0.957,0.078-1.438,0.125V88.662c0.48,0.049,0.958,0.128,1.438,0.128c0.483,0,0.96-0.079,1.439-0.128V95.356z"/>
		<path d="M162.512,98.444c0.042-1.299,0.191-3.898,1.715-3.898c1.253,0,1.375,2.6,1.375,3.898H162.512z M168.48,99.625
			c0.229-3.508-0.998-6.182-4.276-6.182c-3.025,0-4.776,2.449-4.776,5.886c0,3.997,1.773,6.458,5.236,6.458
			c1.024,0,2.15-0.421,2.985-1.106l0.457-1.376l-0.249-0.219c-0.646,0.642-1.585,1.105-2.447,1.105
			c-2.206,0-2.957-2.034-2.897-4.566H168.48z"/>
		<path d="M179.437,101.368c0,1.719,0.064,3.807-0.645,5.177c-0.9,1.766-2.276,2.555-3.985,2.804l-0.316-1.158
			c2.004-0.639,1.816-3.14,1.816-6.378V88.727c0.523,0.051,1.046,0.123,1.566,0.123c0.524,0,1.042-0.072,1.564-0.123V101.368z"/>
		<path d="M186.679,101.512c-0.035,1.23-0.268,2.68-1.362,2.68c-0.768,0-0.982-1.058-0.982-1.962c0-0.788,0.109-1.527,0.573-2.038
			c0.518-0.566,1.323-0.789,1.771-1.057V101.512z M189.148,96.73c0-2.454-1.896-3.286-3.401-3.286c-1.127,0-2.469,0.558-3.31,1.642
			l0.23,1.475h0.125c0.109-0.442,1.042-1.524,2.184-1.524c0.828,0,1.702,0.979,1.702,2.161c0,0.367-0.055,0.686-0.265,0.956
			c-0.397,0.343-0.862,0.488-1.311,0.637c-2.235,0.734-3.273,1.428-3.273,3.757c0,2.135,1.091,3.241,2.557,3.241
			c0.93,0,1.825-0.666,2.292-1.794c0.287,1.079,0.931,1.794,1.776,1.794c0.494,0,1.176-0.391,1.603-0.666v-0.566
			c-0.71,0.056-0.91-0.241-0.91-1.147V96.73z"/>
		<path d="M208.656,101.512c-0.039,1.23-0.27,2.68-1.364,2.68c-0.767,0-0.98-1.058-0.98-1.962c0-0.788,0.106-1.527,0.569-2.038
			c0.522-0.566,1.324-0.789,1.775-1.057V101.512z M211.123,96.73c0-2.454-1.897-3.286-3.399-3.286c-1.128,0-2.468,0.558-3.311,1.642
			l0.235,1.475h0.122c0.111-0.442,1.042-1.524,2.185-1.524c0.825,0,1.702,0.979,1.702,2.161c0,0.367-0.056,0.686-0.27,0.956
			c-0.396,0.343-0.86,0.488-1.306,0.637c-2.24,0.734-3.275,1.428-3.275,3.757c0,2.135,1.091,3.241,2.557,3.241
			c0.93,0,1.828-0.666,2.294-1.794c0.286,1.079,0.929,1.794,1.769,1.794c0.503,0,1.182-0.391,1.609-0.666v-0.566
			c-0.711,0.056-0.911-0.241-0.911-1.147V96.73z"/>
		<path d="M276.331,101.512c-0.037,1.23-0.271,2.68-1.361,2.68c-0.77,0-0.986-1.058-0.986-1.962c0-0.788,0.113-1.527,0.572-2.038
			c0.521-0.566,1.328-0.789,1.775-1.057V101.512z M278.802,96.73c0-2.454-1.898-3.286-3.403-3.286c-1.124,0-2.468,0.558-3.305,1.642
			l0.229,1.475h0.124c0.107-0.442,1.041-1.524,2.184-1.524c0.822,0,1.701,0.979,1.701,2.161c0,0.367-0.057,0.686-0.271,0.956
			c-0.389,0.343-0.855,0.488-1.299,0.637c-2.242,0.734-3.277,1.428-3.277,3.757c0,2.135,1.09,3.241,2.563,3.241
			c0.924,0,1.819-0.666,2.285-1.794c0.285,1.079,0.926,1.794,1.775,1.794c0.494,0,1.175-0.391,1.609-0.666v-0.566
			c-0.715,0.056-0.914-0.241-0.914-1.147V96.73z"/>
		<path d="M197.1,104.192c-1.751,0-1.896-2.896-1.896-4.396c0-1.541,0.207-4.76,2.024-4.76c1.375,0,1.815,1.866,1.815,4.639
			C199.043,102.251,198.437,104.022,197.1,104.192z M192.388,110.705c0.479-0.049,0.959-0.119,1.436-0.119
			c0.48,0,0.96,0.07,1.441,0.119v-6.683c0.501,0.93,1.293,1.766,2.693,1.766c2.145,0,4.169-1.986,4.169-6.385
			c0-3.113-1.104-5.959-4.106-5.959c-1.402,0-2.38,0.93-2.86,2.372v-2.154c-0.46,0.046-0.918,0.119-1.378,0.119
			c-0.48,0-0.938-0.073-1.396-0.119V110.705z"/>
		<path d="M214.215,93.447c0.432,0.044,0.868,0.12,1.321,0.12c0.432,0,0.865-0.076,1.299-0.12v1.738
			c0.791-1.157,1.814-2.035,3.037-2.035c2.48,0,3.113,2.274,3.113,5.224v7.193c-0.454-0.047-0.908-0.125-1.361-0.125
			c-0.451,0-0.906,0.078-1.357,0.125v-6.116c0-2.283-0.238-4.241-1.617-4.241c-1.716,0-1.716,3.164-1.716,4.711v5.646
			c-0.451-0.047-0.906-0.125-1.36-0.125c-0.453,0-0.904,0.078-1.358,0.125V93.447z"/>
		<path d="M322.451,93.447c0.433,0.044,0.87,0.12,1.32,0.12c0.435,0,0.87-0.076,1.3-0.12v1.738c0.789-1.157,1.815-2.035,3.039-2.035
			c2.479,0,3.109,2.274,3.109,5.224v7.193c-0.449-0.047-0.907-0.125-1.359-0.125c-0.445,0-0.906,0.078-1.359,0.125v-6.116
			c0-2.283-0.232-4.241-1.614-4.241c-1.718,0-1.718,3.164-1.718,4.711v5.646c-0.447-0.047-0.904-0.125-1.361-0.125
			c-0.451,0-0.904,0.078-1.356,0.125V93.447z"/>
		<path d="M233.423,90.052c1.233,0,2.744-0.196,3.066,1.839c0.08,0.516,0.1,0.885,0.1,1.232c0,2.523-1.047,3.75-3.166,3.502V90.052z
			 M230.394,105.567c0.508-0.047,1.012-0.125,1.513-0.125c0.505,0,1.009,0.078,1.517,0.125v-7.884h0.142
			c0.446,0.937,1.007,2.062,1.31,2.722l2.402,5.162c0.605-0.047,1.211-0.125,1.816-0.125c0.628,0,1.233,0.078,1.84,0.125l-0.79-1.52
			c-1.211-2.287-2.467-4.546-3.573-6.902c1.879-0.488,3.151-2.018,3.151-4.418c0-1.67-0.609-2.775-1.76-3.508
			c-0.846-0.545-2.318-0.492-3.268-0.492h-4.3V105.567z"/>
		<path d="M244.445,98.444c0.041-1.299,0.187-3.898,1.71-3.898c1.25,0,1.379,2.6,1.379,3.898H244.445z M250.411,99.625
			c0.232-3.508-0.998-6.182-4.275-6.182c-3.023,0-4.779,2.449-4.779,5.886c0,3.997,1.777,6.458,5.238,6.458
			c1.02,0,2.146-0.421,2.981-1.106l0.458-1.373l-0.246-0.222c-0.649,0.642-1.59,1.105-2.447,1.105c-2.205,0-2.961-2.034-2.896-4.566
			H250.411z"/>
		<path d="M253.116,102.083c0.377,1.226,1.255,2.091,2.381,2.091c0.728,0,1.605-0.638,1.605-1.5c0-2.308-4.82-1.423-4.82-5.692
			c0-2.503,1.691-3.91,3.59-3.91c1.041,0,1.923,0.056,2.762,0.816c0,0-0.092,1.79-0.235,2.504h-0.584
			c-0.17-1.058-1.044-2.06-1.984-2.06c-0.751,0-1.546,0.412-1.546,1.419c0,2.383,4.908,1.179,4.908,5.745
			c0,2.283-1.506,3.93-4.028,3.93c-1.024,0-2.021-0.32-2.882-1.009c0.129-0.788,0.231-1.549,0.316-2.334H253.116z"/>
		<path d="M334.889,102.083c0.372,1.226,1.25,2.091,2.369,2.091c0.733,0,1.609-0.638,1.609-1.5c0-2.308-4.812-1.423-4.812-5.692
			c0-2.503,1.685-3.91,3.584-3.91c1.045,0,1.923,0.056,2.757,0.816c0,0-0.088,1.79-0.231,2.504h-0.586
			c-0.164-1.058-1.045-2.06-1.981-2.06c-0.754,0-1.544,0.412-1.544,1.419c0,2.383,4.902,1.179,4.902,5.745
			c0,2.283-1.5,3.93-4.027,3.93c-1.021,0-2.021-0.32-2.873-1.009c0.125-0.788,0.226-1.549,0.309-2.334H334.889z"/>
		<path d="M264.052,98.444c0.035-1.299,0.183-3.898,1.707-3.898c1.252,0,1.379,2.6,1.379,3.898H264.052z M270.015,99.625
			c0.23-3.508-1-6.182-4.277-6.182c-3.025,0-4.776,2.449-4.776,5.886c0,3.997,1.771,6.458,5.238,6.458
			c1.021,0,2.146-0.421,2.979-1.106l0.464-1.373l-0.253-0.222c-0.648,0.642-1.591,1.105-2.443,1.105
			c-2.209,0-2.963-2.034-2.895-4.566H270.015z"/>
		<path d="M281.944,93.662c0.477,0.046,0.958,0.119,1.435,0.119c0.483,0,0.968-0.073,1.444-0.119v1.872
			c0.438-1.79,1.063-2.675,3.11-2.675c-0.107,1.149-0.173,2.283-0.107,3.338l-0.185,0.194c-0.275-0.223-0.439-0.323-0.771-0.323
			c-0.924,0-1.675-0.019-1.926,1.038c-0.185,0.708-0.121,3.23-0.121,4.018v4.443c-0.477-0.047-0.961-0.125-1.444-0.125
			c-0.477,0-0.958,0.078-1.435,0.125V93.662z"/>
		<path d="M297.011,97.097h-0.503c-0.142-1.35-0.897-2.552-2.131-2.552c-1.96,0-2.565,2.994-2.565,4.806
			c0,2.945,0.897,4.841,3.179,4.841c0.764,0,1.665-0.438,2.169-1.152l0.35,0.339l-0.498,1.473c-0.588,0.616-2.066,0.937-2.823,0.937
			c-3.228,0-5.469-2.112-5.469-5.96c0-3.91,2.224-6.384,5.491-6.384c1.191,0,2.613,0.337,3.594,1.102L297.011,97.097z"/>
		<path d="M315.577,88.727c0.524,0.051,1.043,0.123,1.565,0.123c0.524,0,1.044-0.072,1.568-0.123v16.84
			c-0.524-0.047-1.044-0.125-1.568-0.125c-0.522,0-1.041,0.078-1.565,0.125V88.727z"/>
		<path d="M346.099,102.23c0,1.69,0.085,2.598,1.937,2.031v0.963c-0.771,0.343-1.521,0.563-2.167,0.563
			c-2.17,0-2.65-1.694-2.65-3.976v-6.585h-1.42c0.063-0.56,0.063-1.007,0-1.565h1.42v-2.771c0.937-0.45,1.88-0.96,2.881-1.521v4.292
			h1.768c-0.06,0.559-0.06,1.006,0,1.565h-1.768V102.23z"/>
		<path d="M349.764,93.662c0.475,0.046,0.955,0.119,1.444,0.119c0.474,0,0.956-0.073,1.433-0.119v11.905
			c-0.477-0.047-0.959-0.125-1.433-0.125c-0.489,0-0.97,0.078-1.444,0.125V93.662z M351.182,88.097c0.895,0,1.672,0.88,1.672,1.936
			c0,1.058-0.777,1.941-1.672,1.941c-0.897,0-1.628-0.907-1.628-1.941C349.554,89.006,350.284,88.097,351.182,88.097z"/>
		<path d="M408.462,93.662c0.484,0.046,0.965,0.119,1.447,0.119c0.476,0,0.955-0.073,1.435-0.119v11.905
			c-0.479-0.047-0.959-0.125-1.447-0.125c-0.47,0-0.95,0.078-1.435,0.125V93.662z M409.884,88.097c0.896,0,1.671,0.88,1.671,1.936
			c0,1.058-0.775,1.941-1.671,1.941c-0.901,0-1.626-0.907-1.626-1.941C408.258,89.006,408.982,88.097,409.884,88.097z"/>
		<path d="M431.804,93.662c0.479,0.046,0.955,0.119,1.435,0.119c0.483,0,0.961-0.073,1.438-0.119v11.905
			c-0.477-0.047-0.954-0.125-1.438-0.125c-0.479,0-0.956,0.078-1.435,0.125V93.662z M433.222,88.097c0.895,0,1.665,0.88,1.665,1.936
			c0,1.058-0.771,1.941-1.665,1.941c-0.894,0-1.633-0.907-1.633-1.941C431.589,89.006,432.328,88.097,433.222,88.097z"/>
		<path d="M359.069,102.23c0,1.69,0.083,2.598,1.94,2.031v0.963c-0.773,0.343-1.524,0.563-2.167,0.563
			c-2.171,0-2.65-1.694-2.65-3.976v-6.585h-1.417c0.063-0.56,0.063-1.007,0-1.565h1.417v-2.771c0.939-0.45,1.876-0.96,2.877-1.521
			v4.292h1.772c-0.059,0.559-0.059,1.006,0,1.565h-1.772V102.23z"/>
		<path d="M371.79,105.567c-0.457-0.047-0.917-0.125-1.372-0.125c-0.481,0-0.937,0.078-1.398,0.125v-1.79
			c-0.979,1.221-1.712,2.011-3.173,2.011c-1.064,0-2.167-0.464-2.797-1.526c-0.642-1.056-0.539-2.571-0.539-3.801v-6.799
			c0.48,0.046,0.962,0.119,1.438,0.119c0.477,0,0.962-0.073,1.444-0.119v6.77c0,0.568,0.021,1.531,0.223,2.044
			c0.275,0.757,0.757,1.279,1.484,1.279c1.816,0,1.816-2.137,1.816-3.687v-6.406c0.48,0.046,0.957,0.119,1.438,0.119
			c0.482,0,0.959-0.073,1.436-0.119V105.567z"/>
		<path d="M377.726,102.23c0,1.69,0.083,2.598,1.94,2.031v0.963c-0.771,0.343-1.518,0.563-2.171,0.563
			c-2.167,0-2.648-1.694-2.648-3.976v-6.585h-1.421c0.065-0.56,0.065-1.007,0-1.565h1.421v-2.771c0.94-0.45,1.879-0.96,2.879-1.521
			v4.292h1.777c-0.068,0.559-0.068,1.006,0,1.565h-1.777V102.23z"/>
		<path d="M383.714,98.444c0.045-1.299,0.186-3.898,1.713-3.898c1.254,0,1.376,2.6,1.376,3.898H383.714z M389.685,99.625
			c0.226-3.508-1.004-6.182-4.277-6.182c-3.027,0-4.775,2.449-4.775,5.886c0,3.997,1.772,6.458,5.23,6.458
			c1.025,0,2.149-0.421,2.982-1.106l0.468-1.373l-0.255-0.222c-0.647,0.642-1.588,1.105-2.437,1.105
			c-2.219,0-2.967-2.034-2.907-4.566H389.685z"/>
		<path d="M390.434,105.272c0.16-0.788,0.326-1.619,0.601-2.383c0.274-0.759,0.605-1.129,1.337-1.129
			c1.02,0,1.773,1.227,1.191,2.313c-1.15,2.03-2.366,4.019-3.576,6.008l-0.496-0.267L390.434,105.272z"/>
		<path d="M402.151,103.675c1.821,0,3.363-0.173,4.78-0.349c-0.041,0.349-0.1,0.721-0.1,1.058c0,0.349,0.059,0.711,0.1,1.058h-7.904
			V88.727c0.522,0.051,1.042,0.123,1.563,0.123c0.52,0,1.04-0.072,1.561-0.123V103.675z"/>
		<path d="M413.869,93.662c0.475,0.046,0.956,0.119,1.436,0.119c0.483,0,0.963-0.073,1.442-0.119V95.5
			c0.604-1.172,1.851-2.056,3.066-2.056c1.313,0,2.338,0.757,2.774,2.23c0.727-1.301,1.794-2.23,3.166-2.23
			c2.422,0,3.26,1.664,3.26,4.292v7.831c-0.477-0.047-0.957-0.125-1.439-0.125c-0.479,0-0.958,0.078-1.443,0.125v-6.653
			c0-1.645-0.124-3.414-1.518-3.414c-1.481,0-1.733,1.109-1.733,2.631v7.437c-0.484-0.047-0.961-0.125-1.44-0.125
			c-0.477,0-0.961,0.078-1.438,0.125v-6.653c0-1.645-0.128-3.414-1.521-3.414c-1.444,0-1.733,1.547-1.733,2.901v7.166
			c-0.479-0.047-0.959-0.125-1.442-0.125c-0.479,0-0.961,0.078-1.436,0.125V93.662z"/>
		<path d="M440.923,102.23c0,1.69,0.079,2.598,1.938,2.031v0.963c-0.762,0.343-1.522,0.563-2.17,0.563
			c-2.163,0-2.645-1.694-2.645-3.976v-6.585h-1.423c0.065-0.56,0.065-1.007,0-1.565h1.423v-2.771c0.932-0.45,1.875-0.96,2.877-1.521
			v4.292h1.771c-0.063,0.559-0.063,1.006,0,1.565h-1.771V102.23z"/>
		<path d="M447.058,98.444c0.041-1.299,0.188-3.898,1.711-3.898c1.251,0,1.375,2.6,1.375,3.898H447.058z M453.029,99.625
			c0.222-3.508-1.009-6.182-4.28-6.182c-3.031,0-4.78,2.449-4.78,5.886c0,3.997,1.772,6.458,5.231,6.458
			c1.028,0,2.153-0.421,2.985-1.106l0.462-1.373l-0.248-0.222c-0.649,0.642-1.593,1.105-2.443,1.105
			c-2.213,0-2.962-2.034-2.898-4.566H453.029z"/>
		<path d="M459.874,95.036c1.669,0,1.861,2.974,1.861,4.391c0,1.55-0.234,4.766-2.03,4.766c-1.688,0-1.841-3.068-1.841-4.495
			C457.864,98.153,458.082,95.036,459.874,95.036z M464.528,88.567c-0.483,0.055-0.963,0.126-1.439,0.126
			c-0.48,0-0.965-0.071-1.444-0.126v6.639c-0.603-1.276-1.606-1.762-2.835-1.762c-2.746,0-4.022,3.064-4.022,6.182
			c0,3.169,1.02,6.162,4.105,6.162c1.378,0,2.419-0.937,2.859-2.38v2.159c0.457-0.047,0.919-0.125,1.402-0.125
			c0.453,0,0.917,0.078,1.374,0.125V88.567z"/>
	</g>
	<g>
		<g>
			<path d="M373.771,24.681c0-3.248-0.207-8.311-0.312-10.908c-3.243-3.421-5.325-6.014-7.378-10.287
				c-2.735,0.169-5.816,0.106-8.931,0.209C359.746,10.447,366.248,19.379,373.771,24.681z"/>
			<path d="M346.86,11.381c1.714-2.734,3.258-5.2,4.289-7.939c-2.938,0.043-5.846-0.059-8.963-0.059
				c-2.393,3.931-4.438,7.558-8.209,10.803c0,3.119,0,6.96,0,10.079C338.766,20.678,343.618,16.169,346.86,11.381z"/>
			<path d="M367.885,65.165c-4.241,0-5.191-0.071-9.836-0.14c-1.87,0.071-4.293-0.897-4.363-4.016V42.1c0,0-6.028-0.068-8.45,0
				l0.139,5.197c-0.07,3.738-0.004,11.427,0.137,17.178c0.279,4.915,3.254,7.547,6.928,7.684c5.61,0.279,11.366,0.029,15.446,0.142
				C367.952,70.188,367.848,67.381,367.885,65.165z"/>
			<path d="M372.871,43.971c-1.528,0.068-3.673-0.067-7.343-0.067c2.011,7.756,2.77,13.365,3.604,21.884
				c2.701,0,5.328-0.138,7.687-0.069C375.627,58.197,374.669,51.242,372.871,43.971z"/>
			<path d="M303.64,66.863c2.602,0,5.196-0.104,7.589,0c0.852-7.693,1.419-14.688,1.763-23.182h-7.38
				C305.267,50.55,304.577,59.071,303.64,66.863z"/>
			<path d="M325.146,43.591c0.346,5.976,0.729,11.428,0.623,17.451c2.396,0,7.275-0.102,7.377-0.102
				c-0.408-6.234-0.623-11.637-1.139-17.349C329.777,43.591,326.908,43.596,325.146,43.591z"/>
			<path d="M333.945,66.69c0,0,7.407,0,7.55,0c0.969-7.617,1.661-15.139,1.661-22.997h-7.478
				C335.952,50.622,335.054,59.071,333.945,66.69z"/>
			<path d="M355.622,43.904c1.043,4.982,1.67,11.294,2.358,17.105c2.22,0,4.501,0.068,7.409,0.141
				c-0.625-6.307-1.454-11.638-2.634-17.246C362.756,43.904,357.978,43.971,355.622,43.904z"/>
			<path d="M333.044,38.707c-0.254-5.374-1.827-13.231-1.827-13.231h-7.354c0,0,0.765,3.949,0.765,6.375
				c-4.485-0.284-7.385-0.134-7.385-0.134s11.719-13.74,16.027-20.315c-2.692,0.112-7.543-0.112-10.366,0
				c-2.43,3.883-5.661,7.518-5.661,7.518s-1.887-1.749-2.692-2.962c4.813-4.28,11.045-13.382,11.045-13.382h-9.972
				c0,0-4.849,6.513-10.368,11.496c0,1.886,0,2.289,0,4.58c2.289,1.751,6.329,7.003,6.329,7.003s-4.177,4.715-6.868,6.871
				c0,2.154,0,6.286,0,6.286c2.521-0.145,8.617-0.167,10.16-0.208c0.201,6.44,0.041,27.186-0.432,33.868
				c0,0,4.245-0.214,9.317-0.207c-0.829-6.822-0.545-29.33-0.346-33.694C325.152,38.603,328.238,38.496,333.044,38.707z"/>
			<path d="M366.082,21.671h-8.95c0,0,3.341,5.711,4.516,10.084c-4.604-0.01-14.369,0-14.369,0s6.854-9.567,9.661-16.321
				c-2.388-0.104-9.143,0-9.143,0c-1.975,5.299-12.465,18.494-12.465,18.494v4.986l38.753,0.193
				C372.612,33.962,368.682,26.241,366.082,21.671z"/>
		</g>
		<path d="M193.161,37.459c-0.26-7.474,0.623-33.478,0.623-33.478s-21.867,0.183-29.024,0.186
			c-7.005-0.003-28.242-0.508-28.242-0.508s0.771,26.326,0.511,33.8c-0.275,8.033-0.275,29.368-1.106,35.739
			c5.263-0.83,24.658-0.563,28.813-0.563c0,0,22.876-0.439,29.15,0.142C193.053,66.402,193.437,45.492,193.161,37.459z
			 M183.021,64.611h-35.739V40.507h35.739V64.611z M183.021,32.473h-35.739V11.97h35.739V32.473z"/>
		<path d="M265.044,20.42l-0.141-0.429c10.687,0.173,22.189,0.777,22.189,0.777c-0.278-1.526-0.07-6.303,0.206-8.798
			c0,0-16.801,0.347-31.462,0.473c0.098-6.311,0.215-10.905,0.318-12.246c0,0-1.912,0.105-5.308,0.034h-0.187
			c-3.393,0.072-5.305-0.034-5.305-0.034c0.107,1.341,0.222,5.939,0.32,12.253c-13.618,0.49-30.656-0.48-30.656-0.48
			c0.277,2.495,0.484,7.272,0.209,8.798c0,0,11.04-0.583,21.537-0.768l-0.135,0.419c-8.313,17.316-16.623,27.015-22.442,32.972
			v13.02c13.99-11.358,28.121-34.77,30.89-41.558L245.81,23c0.092,9.176,0.141,19.729,0.105,29.049
			c-5.058,0.018-10.969-0.003-15.662-0.403c0.153,2.794,0.078,6.367,0,8.777c0,0,8.14-0.467,15.61-0.638
			c-0.063,6.158-0.181,11.241-0.367,14.195c0,0,3.196-0.234,5.134-0.234h0.252c1.938,0,5.136,0.234,5.136,0.234
			c-0.188-2.954-0.306-8.038-0.37-14.195c7.471,0.171,15.614,0.638,15.614,0.638c-0.081-2.41-0.16-5.983,0-8.777
			c-4.696,0.4-10.608,0.421-15.667,0.403c-0.033-9.454,0.017-20.187,0.111-29.453l0.888,2.258
			c2.771,6.788,16.901,30.199,30.894,41.558v-13.02C281.671,47.435,273.356,37.736,265.044,20.42z"/>
		<g>
			<path d="M392.993,3.486c0,2.079,0.101,5.541,0.101,7.48c2.563-0.14,5.408-0.263,8.34-0.348
				c-0.565,4.604-2.737,16.988-10.484,26.288V49.65c0,0,2.407-1.884,5.593-5.818c0.015,6.632-0.021,19.385-0.465,28.463
				c4.778-0.097,18.836-0.342,24.863-0.029c0,0-0.522-26.807,0.207-44.365c0,0-9.284,0.461-15.231,0.082
				c2.079-4.93,3.889-10.746,5.025-17.504c4.06,0.011,7.885,0.122,10.936,0.383c0-2.768,0.171-5.542,0.171-7.203
				C417.134,3.855,398.957,3.728,392.993,3.486z M411.586,35.071v29.296h-6.025V35.071H411.586z"/>
			<path d="M466.858,27.417c-1.71,0.032-4.633,0.093-8.19,0.158l-0.104-16.977c3.795,0.056,6.711,0.141,7.873,0.263
				c0-2.768,0.007-5.886,0.007-7.548c-7.202,0.138-33.384,0.483-42.18,0.279c0,2.078,0,5.33,0,7.27c1.132-0.09,3.6-0.164,6.804-0.22
				l0.054,17.157c-3.292-0.016-5.898,0-7.72-0.105c0,2.081,0,6.027,0,7.966c1.216-0.096,3.558-0.177,7.268-0.232
				c0.036,8.166-1.215,17.825-7.168,25.306c0,0,0.07,7.412,0,12.886c14.215-8.839,16.493-29.293,16.555-38.442
				c3.039-0.016,6.438-0.013,9.474-0.005c-0.098,10.014-0.552,30.373-0.722,38.289c2.572-0.027,7.845-0.207,10.417,0
				c0,0-0.406-25.137-0.513-38.063c3.955,0.055,6.977,0.142,8.139,0.261C466.852,32.889,466.858,29.079,466.858,27.417z
				 M449.406,27.94c-2.977,0.044-6.259,0.084-9.247,0.108l0.004-17.507c3.022-0.016,6.185-0.021,9.243-0.014V27.94z"/>
		</g>
	</g>
</g>
</svg>
